<svg width="250" height="70" viewBox="0 0 250 70" fill="none" xmlns="http://www.w3.org/2000/svg">
  <defs>
    <linearGradient id="windGradient" x1="0" y1="35" x2="55" y2="35" gradientUnits="userSpaceOnUse">
      <stop stop-color="#22D3EE"/> <stop offset="1" stop-color="#0E7490"/> </linearGradient>
  </defs>
  
  <path d="M48.621 21.0848C45.2443 14.7394 37.6433 11.218 30.1248 12.3888C22.6063 13.5596 16.5925 19.1678 15.1743 26.6833C13.756 34.1988 16.9202 41.9717 23.4007 46.2166L20.1802 49.3302C12.3653 44.1558 8.44189 34.8028 10.1584 25.5413C11.8749 16.2798 19.3415 8.95661 28.5991 7.28479C37.8567 5.61297 47.1658 9.57865 52.327 17.4093C53.7915 19.9942 54.717 22.8252 55.071 25.7537L48.621 21.0848Z" fill="url(#windGradient)"/>
  <path d="M37.8198 43.7834C41.1965 50.1288 48.7975 53.6502 56.316 52.4794C63.8345 51.3086 69.8483 45.6999 71.2665 38.1849C72.6848 30.6694 69.5206 22.896 63.0401 18.6511L66.2606 15.5375C74.0755 20.7119 77.9989 30.0649 76.2824 39.3264C74.5659 48.5879 67.0993 55.9111 57.8417 57.5829C48.5841 59.2547 39.275 55.289 34.1138 47.4583C32.6493 44.8735 31.7238 42.0425 31.3698 39.1139L37.8198 43.7834Z" fill="url(#windGradient)"/>
  
  <text x="80" y="38" 
        font-family="-apple-system, BlinkMacSystemFont, 'Segoe UI', Roboto, Helvetica, Arial, sans-serif" 
        font-size="24" 
        font-weight="bold" 
        fill="white">
    SkyWatch
  </text>
  
  <text x="80" y="58" 
        font-family="-apple-system, BlinkMacSystemFont, 'Segoe UI', Roboto, Helvetica, Arial, sans-serif" 
        font-size="12" 
        font-weight="500" 
        fill="#B0B8C4" 
        letter-spacing="0.1em">
    ALERTS
  </text>
</svg>
  <defs>
    <linearGradient id="windGradient" x1="0" y1="35" x2="55" y2="35" gradientUnits="userSpaceOnUse">
      <stop stop-color="#22D3EE"/> <stop offset="1" stop-color="#0E7490"/> </linearGradient>
  </defs>
  
  <path d="M48.621 21.0848C45.2443 14.7394 37.6433 11.218 30.1248 12.3888C22.6063 13.5596 16.5925 19.1678 15.1743 26.6833C13.756 34.1988 16.9202 41.9717 23.4007 46.2166L20.1802 49.3302C12.3653 44.1558 8.44189 34.8028 10.1584 25.5413C11.8749 16.2798 19.3415 8.95661 28.5991 7.28479C37.8567 5.61297 47.1658 9.57865 52.327 17.4093C53.7915 19.9942 54.717 22.8252 55.071 25.7537L48.621 21.0848Z" fill="url(#windGradient)"/>
  <path d="M37.8198 43.7834C41.1965 50.1288 48.7975 53.6502 56.316 52.4794C63.8345 51.3086 69.8483 45.6999 71.2665 38.1849C72.6848 30.6694 69.5206 22.896 63.0401 18.6511L66.2606 15.5375C74.0755 20.7119 77.9989 30.0649 76.2824 39.3264C74.5659 48.5879 67.0993 55.9111 57.8417 57.5829C48.5841 59.2547 39.275 55.289 34.1138 47.4583C32.6493 44.8735 31.7238 42.0425 31.3698 39.1139L37.8198 43.7834Z" fill="url(#windGradient)"/>
  
  <text x="80" y="38" 
        font-family="-apple-system, BlinkMacSystemFont, 'Segoe UI', Roboto, Helvetica, Arial, sans-serif" 
        font-size="24" 
        font-weight="bold" 
        fill="white">
    SkyWatch
  </text>
  
  <text x="80" y="58" 
        font-family="-apple-system, BlinkMacSystemFont, 'Segoe UI', Roboto, Helvetica, Arial, sans-serif" 
        font-size="12" 
        font-weight="500" 
        fill="#B0B8C4" 
        letter-spacing="0.1em">
    ALERTS
  </text>
</svg>